<?xml version="1.0" encoding="UTF-8"?>
<svg xmlns="http://www.w3.org/2000/svg" xmlns:xlink="http://www.w3.org/1999/xlink" width="96pt" height="58pt" viewBox="0 0 96 58" version="1.1">
<g id="surface1">
<path style=" stroke:none;fill-rule:evenodd;fill:rgb(12.156863%,20.392157%,39.607843%);fill-opacity:1;" d="M 14.367188 16.761719 C 13.796875 16.890625 12.398438 17.335938 11.890625 17.589844 L 11.890625 20.585938 C 11.890625 21.414062 11.824219 21.222656 12.714844 21.289062 C 17.546875 21.414062 20.089844 22.117188 23.714844 24.347656 C 23.648438 23.453125 23.332031 22.5625 22.949219 21.796875 C 20.535156 20.011719 18.246094 19.183594 15.257812 18.929688 C 23.714844 16.890625 31.28125 25.046875 28.480469 33.398438 C 27.78125 33.207031 26.382812 32.695312 25.113281 33.78125 C 25.75 35.5 25.238281 38.242188 22.886719 38.050781 C 22.949219 38.878906 22.570312 39.960938 21.363281 40.792969 C 19.707031 41.8125 17.164062 42.128906 15.957031 41.363281 C 14.367188 41.621094 13.222656 41.171875 11.890625 40.472656 L 11.890625 41.875 C 12.652344 42.382812 13.476562 42.640625 14.304688 42.832031 L 14.941406 45.570312 C 15.066406 45.890625 15.320312 46.019531 15.765625 46.019531 L 19.964844 46.019531 C 20.34375 46.019531 20.535156 45.828125 20.726562 45.570312 L 21.296875 42.703125 C 21.871094 42.574219 22.378906 42.382812 22.949219 42.128906 L 25.113281 44.042969 C 25.367188 44.167969 25.683594 44.167969 26.003906 43.914062 L 29.179688 41.554688 C 29.4375 41.363281 29.5625 41.109375 29.5 40.726562 L 28.292969 38.113281 C 28.671875 37.667969 28.992188 37.222656 29.308594 36.710938 L 32.167969 36.96875 C 32.488281 36.96875 32.679688 36.777344 32.804688 36.394531 L 34.011719 32.632812 C 34.140625 32.3125 34.078125 31.996094 33.824219 31.804688 L 31.34375 30.402344 C 31.40625 29.828125 31.34375 29.253906 31.34375 28.679688 L 33.824219 27.214844 C 34.078125 27.089844 34.140625 26.769531 33.949219 26.324219 L 32.679688 22.5625 C 32.613281 22.179688 32.359375 22.054688 32.042969 21.988281 L 29.179688 22.308594 C 28.863281 21.796875 28.546875 21.351562 28.164062 20.90625 L 29.246094 18.484375 C 29.308594 18.164062 29.246094 17.910156 28.863281 17.65625 L 25.683594 15.359375 C 25.367188 15.167969 25.113281 15.105469 24.792969 15.296875 L 22.695312 17.207031 C 22.1875 17.019531 21.617188 16.828125 21.042969 16.699219 L 20.40625 13.894531 C 20.28125 13.574219 20.027344 13.449219 19.644531 13.449219 L 15.703125 13.449219 C 15.257812 13.449219 15.003906 13.640625 14.941406 13.894531 Z M 18.945312 28.808594 L 19.328125 28.808594 C 19.390625 28.808594 19.390625 28.808594 19.390625 28.871094 L 19.390625 29 C 19.390625 29.0625 19.390625 29.0625 19.328125 29.0625 L 18.945312 29.0625 C 18.882812 29.0625 18.882812 29.0625 18.882812 29 L 18.882812 28.871094 C 18.882812 28.871094 18.945312 28.808594 18.945312 28.808594 Z M 19.898438 22.816406 C 20.472656 23.007812 20.851562 23.582031 20.726562 24.21875 C 20.535156 24.792969 19.964844 25.175781 19.328125 25.046875 C 18.753906 24.855469 18.375 24.285156 18.5 23.644531 C 18.691406 23.007812 19.328125 22.691406 19.898438 22.816406 Z M 20.152344 23.265625 C 20.34375 23.328125 20.472656 23.519531 20.40625 23.644531 C 20.34375 23.835938 20.152344 23.964844 19.964844 23.902344 C 19.773438 23.835938 19.644531 23.644531 19.707031 23.519531 C 19.773438 23.328125 19.964844 23.265625 20.152344 23.265625 Z M 19.136719 28.171875 C 19.582031 28.171875 19.964844 28.554688 19.964844 29 C 19.964844 29.445312 19.582031 29.828125 19.136719 29.828125 C 18.691406 29.828125 18.308594 29.445312 18.308594 29 C 18.308594 28.488281 18.691406 28.171875 19.136719 28.171875 Z M 19.136719 28.554688 C 19.390625 28.554688 19.519531 28.746094 19.519531 28.9375 C 19.519531 29.191406 19.328125 29.320312 19.136719 29.320312 C 18.882812 29.320312 18.691406 29.128906 18.691406 28.9375 C 18.753906 28.746094 18.945312 28.554688 19.136719 28.554688 Z M 21.296875 23.582031 C 22.125 23.902344 22.949219 24.285156 23.714844 24.730469 C 23.714844 24.921875 23.714844 25.113281 23.648438 25.238281 C 23.585938 25.6875 23.460938 26.132812 23.332031 26.515625 C 22.125 26.003906 20.089844 25.941406 18.820312 26.257812 C 17.929688 25.8125 17.417969 24.792969 17.609375 23.773438 C 17.609375 23.773438 17.800781 23.835938 17.929688 23.835938 C 17.992188 24.730469 18.691406 25.429688 19.644531 25.429688 C 20.597656 25.429688 21.363281 24.664062 21.363281 23.773438 C 21.296875 23.773438 21.296875 23.710938 21.296875 23.582031 Z M 20.34375 28.9375 C 20.34375 28.171875 19.773438 27.789062 19.074219 27.660156 C 18.375 27.535156 17.484375 27.46875 16.976562 27.535156 C 18.5 26.324219 21.550781 26.257812 23.207031 26.960938 C 21.933594 26.960938 20.726562 27.726562 20.34375 28.9375 Z M 11.953125 22.371094 C 11.824219 22.371094 11.761719 21.671875 11.953125 21.671875 C 14.242188 21.734375 16.210938 21.863281 18.4375 22.5625 C 18.183594 22.816406 17.992188 23.136719 17.863281 23.453125 C 15.957031 22.816406 14.050781 22.5625 11.953125 22.371094 Z M 12.015625 23.582031 C 11.824219 23.582031 11.824219 22.691406 12.015625 22.691406 C 13.796875 22.945312 15.511719 23.136719 17.292969 23.644531 C 17.230469 24.027344 17.230469 24.347656 17.292969 24.730469 C 15.511719 24.21875 13.796875 23.902344 12.015625 23.582031 Z M 12.015625 25.175781 C 11.890625 25.113281 11.761719 24.027344 12.078125 24.09375 C 13.859375 24.410156 15.640625 24.664062 17.417969 25.175781 C 17.675781 25.8125 17.929688 26.132812 18.308594 26.515625 C 17.164062 26.898438 13.542969 25.621094 12.015625 25.175781 Z M 12.015625 27.726562 C 11.890625 27.726562 11.570312 25.558594 12.144531 25.6875 C 13.859375 26.195312 15.640625 26.707031 17.355469 26.898438 C 17.039062 27.089844 16.71875 27.277344 16.53125 27.535156 C 15.957031 27.535156 15.320312 27.535156 14.75 27.535156 C 13.859375 27.597656 12.90625 27.660156 12.015625 27.726562 Z M 12.078125 29.253906 C 11.761719 29.253906 11.761719 28.109375 12.078125 28.109375 C 14.304688 27.851562 16.339844 27.789062 18.5625 27.980469 C 17.929688 28.363281 17.800781 29.253906 18.308594 29.828125 C 16.277344 29.320312 14.113281 29.191406 12.078125 29.253906 Z M 11.890625 31.484375 L 11.890625 29.890625 C 11.890625 29.765625 11.953125 29.699219 12.078125 29.636719 C 13.222656 29.511719 14.558594 29.574219 15.703125 29.699219 L 15.765625 29.699219 C 14.621094 30.210938 12.90625 31.230469 12.144531 31.675781 C 12.078125 31.742188 11.953125 31.742188 11.890625 31.675781 C 11.890625 31.675781 11.890625 31.550781 11.890625 31.484375 Z M 20.664062 31.675781 C 20.152344 31.292969 19.707031 30.65625 19.519531 30.082031 C 19.835938 29.957031 20.027344 29.765625 20.21875 29.511719 C 20.152344 30.148438 20.28125 30.847656 20.664062 31.421875 C 20.726562 31.484375 20.726562 31.550781 20.789062 31.613281 C 20.980469 31.742188 20.851562 31.804688 20.664062 31.675781 Z M 15.574219 40.472656 C 14.304688 40.535156 12.015625 40.410156 11.507812 38.941406 C 12.96875 35.691406 14.75 32.632812 16.976562 29.890625 C 17.164062 29.890625 17.292969 29.957031 17.484375 29.957031 C 16.019531 33.398438 15.640625 36.777344 15.574219 40.472656 Z M 12.144531 36.136719 C 11.699219 36.394531 11.1875 33.015625 12.144531 32.3125 C 13.160156 31.613281 14.175781 30.976562 15.320312 30.273438 L 16.085938 29.828125 C 16.210938 29.828125 16.402344 29.890625 16.59375 29.890625 C 16.464844 30.019531 16.210938 30.339844 16.148438 30.402344 C 14.6875 31.867188 13.097656 34.546875 12.144531 36.136719 Z M 24.730469 26.640625 C 25.050781 26.769531 24.667969 27.851562 24.414062 27.789062 C 24.160156 27.726562 23.90625 27.789062 23.714844 27.917969 C 23.90625 28.300781 24.285156 29.128906 24.414062 29.699219 C 24.476562 29.890625 24.539062 30.402344 24.285156 30.59375 C 24.09375 30.722656 23.839844 30.65625 23.460938 30.722656 L 23.394531 31.101562 C 23.394531 31.167969 23.523438 31.167969 23.523438 31.230469 C 23.523438 31.292969 23.394531 31.484375 23.140625 31.484375 C 23.207031 31.613281 23.269531 31.675781 23.269531 31.867188 C 23.269531 31.996094 23.015625 31.996094 22.824219 32.125 C 22.695312 32.1875 22.761719 32.25 22.632812 32.25 C 22.632812 32.25 22.570312 32.25 22.570312 32.25 C 20.34375 31.867188 20.21875 29 21.933594 27.917969 L 22.441406 28.109375 C 22.570312 28.171875 22.570312 28.171875 22.441406 28.234375 C 22.378906 28.234375 22.316406 28.300781 22.25 28.300781 C 22.0625 28.363281 22.0625 28.363281 22.25 28.425781 C 22.441406 28.488281 22.695312 28.554688 22.886719 28.617188 C 22.949219 28.617188 22.949219 28.679688 23.015625 28.617188 C 23.078125 28.554688 23.078125 28.425781 23.015625 28.300781 C 23.140625 28.300781 23.207031 28.300781 23.332031 28.234375 C 23.523438 28.109375 23.460938 28.109375 23.269531 28.109375 C 23.140625 28.109375 23.015625 28.171875 22.949219 28.109375 L 22.25 27.917969 C 22.507812 27.660156 23.078125 27.40625 23.714844 27.46875 L 23.96875 26.449219 Z M 23.015625 32.824219 C 23.714844 33.398438 24.730469 32.953125 24.160156 33.398438 C 22.316406 34.800781 19.582031 32.378906 19.199219 30.273438 C 19.261719 30.273438 19.390625 30.273438 19.453125 30.273438 C 19.835938 31.101562 19.964844 31.421875 20.726562 32.058594 C 21.171875 32.378906 21.550781 32.570312 22.1875 32.570312 C 22.695312 32.632812 22.570312 32.441406 23.015625 32.824219 Z M 27.59375 25.558594 C 28.035156 26.707031 27.972656 28.300781 26.957031 28.9375 C 26.574219 29.128906 26.449219 28.9375 26.703125 28.617188 C 26.894531 28.425781 26.894531 27.980469 26.828125 27.726562 C 26.574219 26.769531 24.792969 26.132812 23.96875 25.875 C 24.285156 24.664062 24.09375 23.453125 23.648438 22.308594 C 25.304688 22.882812 26.894531 23.835938 27.59375 25.558594 Z M 16.71875 40.855469 C 16.464844 37.988281 16.59375 32.695312 17.863281 30.082031 C 18.121094 30.148438 18.4375 30.210938 18.691406 30.273438 C 18.691406 30.339844 18.691406 30.65625 18.691406 30.722656 C 18.4375 34.609375 19.964844 37.09375 22.25 38.242188 C 21.996094 40.664062 18.753906 41.238281 16.71875 40.855469 Z M 24.667969 34.035156 C 25.175781 34.925781 24.414062 37.347656 23.269531 37.539062 C 20.34375 36.902344 18.628906 33.015625 18.882812 30.273438 C 18.945312 30.273438 18.945312 30.273438 19.007812 30.273438 C 19.007812 30.402344 19.074219 30.59375 19.074219 30.722656 C 19.644531 32.824219 22.316406 35.183594 24.667969 34.035156 Z M 24.667969 34.035156 "/>
<path style=" stroke:none;fill-rule:evenodd;fill:rgb(12.156863%,20.392157%,39.607843%);fill-opacity:1;" d="M 47.238281 28.746094 L 47.238281 25.6875 L 46.285156 25.6875 L 46.285156 24.855469 L 48.890625 24.855469 L 48.890625 25.6875 L 47.9375 25.6875 L 47.9375 28.746094 Z M 72.921875 26.195312 L 72.921875 25.113281 C 72.285156 24.539062 71.460938 24.601562 70.886719 25.367188 C 70.570312 25.75 70.441406 26.257812 70.441406 26.832031 C 70.441406 27.46875 70.632812 28.042969 71.015625 28.488281 C 71.585938 29.0625 72.285156 29.0625 72.859375 28.554688 L 72.859375 27.597656 C 72.476562 28.042969 71.777344 28.363281 71.332031 27.726562 C 71.207031 27.535156 71.078125 27.214844 71.078125 26.832031 C 71.078125 26.449219 71.140625 26.195312 71.332031 25.941406 C 71.714844 25.429688 72.222656 25.558594 72.605469 25.941406 Z M 64.277344 24.476562 L 64.53125 24.15625 L 64.339844 23.902344 L 63.894531 24.476562 Z M 54.039062 26.195312 L 54.039062 25.113281 C 53.402344 24.539062 52.578125 24.601562 52.003906 25.367188 C 51.6875 25.75 51.558594 26.257812 51.558594 26.832031 C 51.558594 27.46875 51.75 28.042969 52.132812 28.488281 C 52.703125 29.0625 53.402344 29.0625 53.976562 28.554688 L 53.976562 27.597656 C 53.59375 28.042969 52.894531 28.363281 52.449219 27.726562 C 52.324219 27.535156 52.195312 27.214844 52.195312 26.832031 C 52.195312 26.449219 52.257812 26.195312 52.449219 25.941406 C 52.832031 25.429688 53.339844 25.558594 53.722656 25.941406 Z M 68.726562 26.898438 L 68.726562 26.578125 L 67.453125 26.578125 L 67.453125 27.40625 L 68.027344 27.40625 L 68.027344 27.980469 C 67.898438 28.042969 67.773438 28.042969 67.644531 28.042969 C 67.074219 28.042969 66.753906 27.46875 66.753906 26.769531 C 66.753906 26.449219 66.820312 26.132812 67.007812 25.875 C 67.261719 25.496094 67.773438 25.429688 68.089844 25.6875 C 68.21875 25.75 68.34375 25.875 68.535156 26.066406 L 68.597656 25.113281 C 68.472656 24.984375 68.28125 24.921875 68.152344 24.855469 C 67.582031 24.601562 66.945312 24.792969 66.5 25.367188 C 66.183594 25.75 66.054688 26.257812 66.054688 26.832031 C 66.054688 28.042969 66.691406 28.871094 67.644531 28.871094 C 68.027344 28.871094 68.40625 28.679688 68.789062 28.488281 L 68.789062 26.898438 Z M 69.363281 28.746094 L 70.0625 28.746094 L 70.0625 24.855469 L 69.363281 24.855469 Z M 60.84375 25.175781 L 60.84375 28.746094 L 62.6875 28.746094 L 62.6875 27.917969 L 61.542969 27.917969 L 61.542969 24.855469 L 60.84375 24.855469 Z M 54.484375 25.175781 L 54.484375 28.746094 L 55.121094 28.746094 L 55.121094 26.640625 L 56.835938 28.746094 L 57.027344 28.746094 L 57.027344 24.855469 L 56.390625 24.855469 L 56.390625 27.023438 L 54.675781 24.855469 L 54.484375 24.855469 Z M 49.335938 25.175781 L 49.335938 28.746094 L 51.179688 28.746094 L 51.179688 27.917969 L 50.035156 27.917969 L 50.035156 27.152344 L 50.734375 27.152344 L 50.734375 26.386719 L 50.035156 26.386719 L 50.035156 25.6875 L 51.179688 25.6875 L 51.179688 24.855469 L 49.335938 24.855469 Z M 57.472656 26.832031 C 57.472656 25.6875 58.109375 24.792969 59 24.792969 C 59.890625 24.792969 60.523438 25.75 60.523438 26.832031 C 60.523438 27.980469 59.890625 28.871094 59 28.871094 C 58.109375 28.871094 57.472656 27.917969 57.472656 26.832031 Z M 58.171875 26.832031 C 58.171875 27.40625 58.488281 28.042969 58.933594 28.042969 C 59.445312 28.042969 59.699219 27.46875 59.699219 26.832031 C 59.699219 26.195312 59.445312 25.621094 58.933594 25.621094 C 58.488281 25.621094 58.171875 26.195312 58.171875 26.832031 Z M 62.6875 26.832031 C 62.6875 26.515625 62.75 26.257812 62.8125 26.003906 C 63.066406 25.238281 63.574219 24.730469 64.210938 24.730469 C 65.101562 24.730469 65.738281 25.6875 65.738281 26.769531 C 65.738281 27.917969 65.101562 28.808594 64.210938 28.808594 C 63.320312 28.871094 62.6875 27.917969 62.6875 26.832031 Z M 63.386719 26.832031 C 63.386719 27.40625 63.703125 28.042969 64.148438 28.042969 C 64.65625 28.042969 64.910156 27.46875 64.910156 26.832031 C 64.910156 26.195312 64.65625 25.621094 64.148438 25.621094 C 63.640625 25.621094 63.386719 26.195312 63.386719 26.832031 Z M 74.636719 24.730469 C 75.273438 24.730469 75.847656 25.238281 76.035156 26.003906 C 76.101562 26.257812 76.164062 26.515625 76.164062 26.832031 C 76.164062 27.980469 75.527344 28.871094 74.636719 28.871094 C 73.75 28.871094 73.113281 27.917969 73.113281 26.832031 C 73.175781 25.6875 73.75 24.730469 74.636719 24.730469 Z M 73.875 26.832031 C 73.875 27.40625 74.195312 28.042969 74.636719 28.042969 C 75.148438 28.042969 75.402344 27.46875 75.402344 26.832031 C 75.402344 26.195312 75.148438 25.621094 74.636719 25.621094 C 74.195312 25.621094 73.875 26.195312 73.875 26.832031 Z M 73.875 26.832031 "/>
<path style=" stroke:none;fill-rule:evenodd;fill:rgb(12.156863%,20.392157%,39.607843%);fill-opacity:1;" d="M 81.632812 31.933594 C 81.25 31.550781 80.679688 31.421875 80.296875 31.933594 C 79.980469 32.378906 79.980469 33.207031 80.296875 33.652344 C 80.742188 34.226562 81.441406 33.972656 81.886719 33.523438 L 81.886719 34.480469 C 81.3125 34.992188 80.488281 34.992188 79.914062 34.417969 C 79.152344 33.652344 79.089844 32.1875 79.789062 31.292969 C 80.359375 30.59375 81.25 30.53125 81.886719 31.039062 L 81.886719 32.125 Z M 73.492188 30.65625 L 73.621094 30.464844 L 73.429688 30.210938 L 73.113281 30.59375 L 73.492188 30.59375 Z M 78.199219 31.230469 L 78.199219 34.800781 L 78.960938 34.800781 L 78.960938 30.910156 C 78.644531 30.910156 78.515625 30.910156 78.199219 30.910156 Z M 75.71875 32.761719 L 74.574219 34.734375 L 75.402344 34.734375 L 76.101562 33.398438 L 76.863281 34.734375 L 77.753906 34.734375 L 76.546875 32.632812 L 77.5625 30.847656 L 76.738281 30.847656 L 76.101562 31.933594 L 75.464844 30.847656 C 75.148438 30.847656 75.082031 30.847656 74.765625 30.847656 Z M 72.414062 31.230469 L 72.414062 34.800781 L 74.382812 34.800781 L 74.382812 33.972656 L 73.113281 33.972656 L 73.113281 33.207031 L 73.875 33.207031 L 73.875 32.441406 L 73.113281 32.441406 L 73.113281 31.742188 L 74.320312 31.742188 L 74.320312 30.976562 C 73.621094 30.976562 73.113281 30.976562 72.414062 30.976562 Z M 69.042969 30.910156 L 68.40625 34.800781 L 69.042969 34.800781 L 69.296875 33.015625 L 70.125 34.800781 L 70.316406 34.800781 L 71.078125 33.015625 L 71.332031 34.800781 L 72.03125 34.800781 L 71.394531 30.910156 L 71.269531 30.910156 L 70.1875 33.269531 Z M 82.902344 32.824219 C 82.902344 33.398438 83.222656 34.035156 83.730469 34.035156 C 84.238281 34.035156 84.554688 33.460938 84.554688 32.824219 C 84.554688 32.25 84.238281 31.613281 83.730469 31.613281 C 83.222656 31.675781 82.902344 32.25 82.902344 32.824219 Z M 82.140625 32.824219 C 82.140625 31.742188 82.777344 30.785156 83.730469 30.785156 C 84.683594 30.785156 85.320312 31.742188 85.320312 32.824219 C 85.320312 33.972656 84.621094 34.863281 83.730469 34.863281 C 82.777344 34.925781 82.140625 33.972656 82.140625 32.824219 Z M 82.140625 32.824219 "/>
<path style=" stroke:none;fill-rule:evenodd;fill:rgb(12.156863%,20.392157%,39.607843%);fill-opacity:1;" d="M 61.476562 31.167969 L 61.476562 34.671875 L 62.304688 34.671875 C 62.6875 34.671875 63.066406 34.609375 63.386719 34.355469 C 63.894531 33.972656 64.148438 33.460938 64.148438 32.695312 C 64.148438 32.125 63.957031 31.613281 63.640625 31.292969 C 63.320312 30.976562 62.875 30.785156 62.304688 30.785156 C 61.921875 30.785156 61.859375 30.785156 61.476562 30.785156 Z M 64.59375 31.167969 L 64.59375 34.671875 L 66.5 34.671875 L 66.5 33.84375 L 65.292969 33.84375 L 65.292969 33.144531 L 66.054688 33.144531 L 66.054688 32.378906 L 65.292969 32.378906 L 65.292969 31.675781 L 66.5 31.675781 L 66.5 30.910156 C 65.800781 30.910156 65.292969 30.910156 64.59375 30.910156 Z M 57.28125 34.734375 L 59.253906 34.734375 L 59.253906 33.90625 L 58.046875 33.90625 L 58.046875 30.910156 L 57.28125 30.910156 Z M 53.847656 34.734375 L 54.613281 34.734375 L 54.800781 34.164062 L 56.074219 34.164062 L 56.265625 34.734375 L 57.027344 34.734375 L 55.503906 30.910156 L 55.375 30.910156 Z M 54.992188 33.460938 L 55.4375 32.25 L 55.820312 33.460938 Z M 50.925781 31.167969 L 50.925781 34.671875 L 51.625 34.671875 L 51.625 32.570312 L 53.402344 34.671875 L 53.59375 34.671875 L 53.59375 30.847656 L 52.894531 30.847656 L 52.894531 32.953125 L 51.050781 30.847656 L 50.859375 30.847656 Z M 46.285156 31.167969 L 46.285156 34.671875 L 47.046875 34.671875 L 47.046875 30.847656 L 46.285156 30.847656 Z M 45.457031 31.933594 C 45.074219 31.550781 44.503906 31.421875 44.121094 31.933594 C 43.929688 32.1875 43.867188 32.441406 43.867188 32.824219 C 43.867188 33.207031 43.929688 33.460938 44.121094 33.652344 C 44.566406 34.226562 45.265625 33.972656 45.710938 33.523438 L 45.710938 34.480469 C 45.140625 34.992188 44.3125 34.992188 43.742188 34.417969 C 43.359375 34.035156 43.105469 33.460938 43.105469 32.761719 C 43.105469 32.1875 43.230469 31.675781 43.550781 31.292969 C 44.121094 30.59375 45.011719 30.53125 45.648438 31.039062 L 45.648438 32.125 Z M 40.117188 34.734375 L 40.878906 34.734375 L 41.070312 34.164062 L 42.339844 34.164062 L 42.53125 34.734375 L 43.296875 34.734375 L 41.769531 30.910156 L 41.640625 30.910156 Z M 41.261719 33.460938 L 41.707031 32.25 L 42.085938 33.460938 Z M 37.191406 34.734375 L 37.191406 30.910156 L 37.382812 30.910156 L 39.226562 33.015625 L 39.226562 30.910156 L 39.925781 30.910156 L 39.925781 34.734375 L 39.734375 34.734375 L 37.953125 32.632812 L 37.953125 34.734375 Z M 47.429688 32.761719 C 47.429688 31.613281 48.128906 30.722656 49.015625 30.722656 C 49.972656 30.722656 50.605469 31.675781 50.605469 32.761719 C 50.605469 33.84375 49.972656 34.800781 49.015625 34.800781 C 48.128906 34.863281 47.429688 33.90625 47.429688 32.761719 Z M 48.191406 32.761719 C 48.191406 33.335938 48.507812 33.90625 49.015625 33.90625 C 49.527344 33.90625 49.84375 33.335938 49.84375 32.761719 C 49.84375 32.1875 49.527344 31.550781 49.015625 31.550781 C 48.507812 31.613281 48.191406 32.1875 48.191406 32.761719 Z M 62.175781 33.90625 L 62.175781 31.742188 L 62.367188 31.742188 C 62.6875 31.742188 62.941406 31.867188 63.132812 32.058594 C 63.320312 32.25 63.386719 32.503906 63.386719 32.886719 C 63.386719 33.207031 63.320312 33.523438 63.132812 33.714844 C 62.941406 33.90625 62.6875 34.035156 62.367188 34.035156 L 62.175781 34.035156 Z M 62.175781 33.90625 "/>
<path style=" stroke:none;fill-rule:evenodd;fill:rgb(12.156863%,20.392157%,39.607843%);fill-opacity:1;" d="M 86.78125 32.886719 C 87.355469 32.886719 87.796875 33.335938 87.796875 33.90625 C 87.796875 34.480469 87.355469 34.925781 86.78125 34.925781 C 86.210938 34.925781 85.765625 34.480469 85.765625 33.90625 C 85.765625 33.335938 86.210938 32.886719 86.78125 32.886719 Z M 86.78125 33.015625 C 86.335938 33.015625 85.890625 33.398438 85.890625 33.90625 C 85.890625 34.417969 86.273438 34.800781 86.71875 34.800781 C 87.226562 34.800781 87.609375 34.417969 87.609375 33.90625 C 87.671875 33.398438 87.289062 33.015625 86.78125 33.015625 Z M 86.78125 33.015625 "/>
<path style=" stroke:none;fill-rule:evenodd;fill:rgb(12.156863%,20.392157%,39.607843%);fill-opacity:1;" d="M 86.589844 33.972656 C 86.589844 34.097656 86.589844 34.289062 86.589844 34.417969 C 86.527344 34.417969 86.464844 34.417969 86.398438 34.417969 C 86.398438 34.035156 86.398438 33.714844 86.398438 33.335938 C 86.589844 33.335938 86.78125 33.335938 87.035156 33.335938 C 87.226562 33.398438 87.355469 33.652344 87.226562 33.78125 C 87.164062 33.84375 87.164062 33.84375 87.035156 33.90625 C 87.035156 33.90625 87.035156 33.90625 87.097656 33.90625 C 87.226562 33.972656 87.289062 34.035156 87.289062 34.164062 C 87.289062 34.226562 87.289062 34.289062 87.289062 34.417969 C 87.226562 34.417969 87.164062 34.417969 87.097656 34.417969 C 87.097656 34.355469 87.097656 34.355469 87.097656 34.289062 C 87.097656 34.226562 87.097656 34.164062 87.097656 34.097656 C 87.097656 33.972656 87.035156 33.972656 86.910156 33.90625 C 86.78125 33.972656 86.65625 33.972656 86.589844 33.972656 Z M 86.589844 33.84375 C 86.65625 33.84375 86.71875 33.84375 86.78125 33.84375 C 86.84375 33.84375 86.910156 33.84375 86.972656 33.84375 C 87.035156 33.84375 87.097656 33.78125 87.097656 33.652344 C 87.097656 33.523438 87.035156 33.523438 86.972656 33.460938 C 86.84375 33.398438 86.71875 33.460938 86.589844 33.460938 C 86.589844 33.589844 86.589844 33.714844 86.589844 33.84375 Z M 86.589844 33.84375 "/>
</g>
</svg>
